<svg xmlns="http://www.w3.org/2000/svg" width="40" height="26" fill="none" viewBox="0 0 40 26"><path fill="#fff" d="M0 0h40v26H0z"/><g clip-path="url(#a)" filter="url(#b)"><path fill="url(#c)" d="M4 2h32v22H4z"/></g><path fill="#fff" d="M32.17 9.85A2.68 2.68 0 0 0 31.4 8a2.2 2.2 0 0 0-.9-.56c-.32-.1-.77-.16-1.34-.16h-7.55v5.17h7.55c.56 0 1-.06 1.34-.16.33-.1.62-.29.9-.56.25-.25.44-.52.56-.84.14-.35.2-.7.2-1.04Zm0 6.31a2.68 2.68 0 0 0-.76-1.86 2.2 2.2 0 0 0-.9-.56 4.7 4.7 0 0 0-1.34-.15h-7.55v5.14h7.55c.56 0 1-.05 1.34-.16.33-.1.62-.29.9-.56a2.68 2.68 0 0 0 .76-1.86Zm-11.6-3.74c-.25-3.34-2.64-5.49-6.36-5.49-3.92 0-6.38 2.4-6.38 6.06 0 3.8 2.56 6.08 6.38 6.08 3.74 0 6.12-2.16 6.36-5.5h-6.44v-1.13h6.44v-.02Zm13.9 10.23a.6.6 0 0 1-.44.18.56.56 0 0 1-.43-.18.63.63 0 0 1 0-.87.59.59 0 0 1 .43-.18.6.6 0 0 1 .44.18.6.6 0 0 1 .18.43.52.52 0 0 1-.18.44Zm-.81-.81a.5.5 0 0 0-.16.37.55.55 0 0 0 .53.54.5.5 0 0 0 .38-.16.5.5 0 0 0 .15-.38.5.5 0 0 0-.15-.37.5.5 0 0 0-.38-.16.5.5 0 0 0-.37.16Zm.36.03c.09 0 .15 0 .19.02.07.03.1.08.1.18 0 .06-.02.1-.06.13-.02.01-.05.03-.1.03.06.01.1.03.12.06l.04.1v.11l.01.03v.01h-.11v-.08c0-.08-.02-.13-.06-.16a.36.36 0 0 0-.14-.02h-.09v.27h-.12v-.67h.22v-.01Zm.14.11c-.03-.02-.08-.02-.15-.02h-.1v.25h.22c.05-.03.07-.06.07-.11 0-.08-.02-.1-.04-.12Z"/><defs><filter id="b" width="35" height="25" x="2.5" y=".5" color-interpolation-filters="sRGB" filterUnits="userSpaceOnUse"><feFlood flood-opacity="0" result="BackgroundImageFix"/><feBlend in="SourceGraphic" in2="BackgroundImageFix" result="shape"/><feGaussianBlur result="effect1_foregroundBlur_812_1346" stdDeviation=".75"/></filter><linearGradient id="c" x1="4" x2="36" y1="8.5" y2="24" gradientUnits="userSpaceOnUse"><stop offset="0" stop-color="#2E2E75"/><stop offset=".35" stop-color="#427FBF"/><stop offset=".52" stop-color="#E3D7DB"/><stop offset=".6" stop-color="#DCA9A5"/><stop offset=".76" stop-color="#B82A20"/></linearGradient><clipPath id="a"><path fill="#fff" d="M0 0h32v22H0z" transform="translate(4 2)"/></clipPath></defs></svg>