<svg width="24" height="24" viewBox="0 0 24 24" fill="none" xmlns="http://www.w3.org/2000/svg">
<path fill-rule="evenodd" clip-rule="evenodd" d="M12.0002 2.7002C17.1361 2.7002 21.3002 6.8658 21.3002 12.0002C21.3002 17.1376 17.1361 21.3001 12.0002 21.3001C6.8643 21.3001 2.7002 17.1376 2.7002 12.0002C2.7002 6.8658 6.8643 2.7002 12.0002 2.7002ZM12.0002 19.5001C16.1465 19.5001 19.5002 16.1451 19.5002 12.0002C19.5002 7.85533 16.1435 4.5002 12.0002 4.5002C7.85536 4.5002 4.50018 7.85661 4.50018 12.0002C4.50018 16.1466 7.85521 19.5001 12.0002 19.5001ZM13.5752 15.6001C13.5752 16.4686 12.8686 17.1751 12.0002 17.1751C11.1317 17.1751 10.4252 16.4686 10.4252 15.6001C10.4252 14.7317 11.1317 14.0252 12.0002 14.0252C12.8686 14.0252 13.5752 14.7317 13.5752 15.6001ZM10.5238 7.67263C10.5109 7.41562 10.7159 7.20018 10.9732 7.20018H13.0271C13.2845 7.20018 13.4894 7.41562 13.4765 7.67263L13.2216 12.7726C13.2096 13.0122 13.0119 13.2002 12.7721 13.2002H11.2282C10.9885 13.2002 10.7908 13.0122 10.7788 12.7726L10.5238 7.67263Z" fill="#AE2831"/>
</svg>
