<?xml version="1.0" standalone="no"?>
<!DOCTYPE svg PUBLIC "-//W3C//DTD SVG 20010904//EN"
 "http://www.w3.org/TR/2001/REC-SVG-20010904/DTD/svg10.dtd">
<svg version="1.0" xmlns="http://www.w3.org/2000/svg"
 width="260.000000pt" height="260.000000pt" viewBox="0 0 260.000000 260.000000"
 preserveAspectRatio="xMidYMid meet">
<metadata>
Created by potrace 1.14, written by Peter Selinger 2001-2017
</metadata>
<g transform="translate(0.000000,260.000000) scale(0.100000,-0.100000)"
fill="#000000" stroke="none">
<path d="M0 1300 l0 -1300 1300 0 1300 0 0 1300 0 1300 -1300 0 -1300 0 0
-1300z m1505 795 c131 -21 218 -48 324 -101 277 -137 376 -402 285 -764 -111
-439 -391 -692 -832 -751 -103 -14 -406 -6 -470 12 -46 12 -85 52 -78 78 3 9
71 261 151 561 81 300 154 561 161 580 16 40 37 56 85 65 69 12 69 24 -10
-407 -121 -655 -116 -625 -102 -642 20 -23 89 -29 204 -17 208 23 321 74 453
205 103 104 155 192 200 341 22 74 27 110 28 205 1 115 1 117 -37 192 -74 151
-223 239 -483 285 -79 14 -158 17 -387 18 l-288 0 -19 25 c-20 25 -27 60 -12
60 4 0 81 11 169 25 89 14 195 29 235 34 120 14 326 12 423 -4z"/>
</g>
</svg>
